<svg width="14" height="14" viewBox="0 0 14 14" fill="none" xmlns="http://www.w3.org/2000/svg">
<path d="M7.02734 0C3.18254 0 0 3.12785 0 6.97266C0 10.8175 3.18254 14 7.02734 14C10.8721 14 14 10.8175 14 6.97266C14 3.12785 10.8721 0 7.02734 0ZM10.4787 9.26379C10.7986 9.58371 10.7986 10.1041 10.4787 10.4243C10.1612 10.7414 9.64086 10.7466 9.3182 10.4243L7.02734 8.13258L4.68152 10.4245C4.3616 10.7445 3.84125 10.7445 3.52105 10.4245C3.20113 10.1046 3.20113 9.58426 3.52105 9.26406L5.81246 6.97266L3.52105 4.68125C3.20113 4.36105 3.20113 3.8407 3.52105 3.52078C3.84125 3.20086 4.3616 3.20086 4.68152 3.52078L7.02734 5.81273L9.3182 3.52078C9.63758 3.20141 10.1579 3.20031 10.4787 3.52078C10.7986 3.8407 10.7986 4.36105 10.4787 4.68125L8.18727 6.97266L10.4787 9.26379Z" fill="#D01F36"/>
</svg>
