<svg width="52" height="57" viewBox="0 0 52 57" fill="none" xmlns="http://www.w3.org/2000/svg">
<path d="M51.0977 40.6556V39.5731V16.2693C51.0977 15.0117 50.428 13.8496 49.3406 13.2207L27.3792 0.519008C26.2919 -0.109852 24.9524 -0.109852 23.8651 0.519008L1.90357 13.2207C0.816316 13.8496 0.146484 15.0116 0.146484 16.2693V39.5732V40.6557C0.146484 41.9133 0.816203 43.0755 1.90357 43.7043L23.8651 56.4059C24.9524 57.0348 26.2919 57.0348 27.3792 56.4059L49.3407 43.7043C50.4279 43.0755 51.0977 41.9133 51.0977 40.6556Z" fill="#44454B"/>
<path d="M47.3361 38.7889V16.5509C47.3361 16.3369 47.2207 16.139 47.0333 16.032L25.9847 4.00753C25.7974 3.90049 25.5666 3.90049 25.3792 4.00753L4.33042 16.032C4.14304 16.139 4.02759 16.3369 4.02759 16.5509V38.7889L5.29336 40.6243L25.6819 52.2716L46.0705 40.6243L47.3361 38.7889Z" fill="#303035"/>
</svg>
