<svg width="52" height="57" viewBox="0 0 52 57" fill="none" xmlns="http://www.w3.org/2000/svg">
<path d="M51.0977 40.6554V39.5729V16.2691C51.0977 15.0115 50.428 13.8493 49.3406 13.2205L27.3792 0.518764C26.2919 -0.110096 24.9524 -0.110096 23.8651 0.518764L1.90357 13.2205C0.816316 13.8493 0.146484 15.0113 0.146484 16.2691V39.573V40.6555C0.146484 41.9131 0.816203 43.0752 1.90357 43.7041L23.8651 56.4057C24.9524 57.0345 26.2919 57.0345 27.3792 56.4057L49.3407 43.7041C50.4279 43.0752 51.0977 41.9131 51.0977 40.6554Z" fill="#B8B8FF"/>
<path d="M47.3361 38.7889V16.5509C47.3361 16.3369 47.2207 16.139 47.0333 16.032L25.9847 4.00753C25.7974 3.90049 25.5666 3.90049 25.3792 4.00753L4.33042 16.032C4.14304 16.139 4.02759 16.3369 4.02759 16.5509V38.7889L5.29336 40.6243L25.6819 52.2716L46.0705 40.6243L47.3361 38.7889Z" fill="#303035"/>
</svg>
