<svg width="16" height="8" viewBox="0 0 16 8" fill="none" xmlns="http://www.w3.org/2000/svg">
<path d="M0.624998 3.24999H13.8612L11.6686 1.068C11.4239 0.824496 11.423 0.428778 11.6665 0.184122C11.9099 -0.0605647 12.3057 -0.0614707 12.5504 0.181998L15.8161 3.43199C15.8163 3.43218 15.8165 3.4324 15.8166 3.43259C16.0607 3.67609 16.0615 4.07309 15.8167 4.3174C15.8165 4.31759 15.8164 4.31781 15.8162 4.31799L12.5504 7.56799C12.3058 7.81143 11.9101 7.81058 11.6666 7.56586C11.423 7.32121 11.4239 6.9255 11.6686 6.68199L13.8612 4.49999H0.624998C0.279811 4.49999 0 4.22018 0 3.87499C0 3.52981 0.279811 3.24999 0.624998 3.24999Z" fill="white"/>
</svg>
