<svg xmlns="http://www.w3.org/2000/svg" xmlns:xlink="http://www.w3.org/1999/xlink" width="912" height="286" viewBox="0 0 912 286">
  <defs>
    <clipPath id="clip-gamify_logo">
      <rect width="912" height="286"/>
    </clipPath>
  </defs>
  <g id="gamify_logo" clip-path="url(#clip-gamify_logo)">
    <g id="Group_185" data-name="Group 185" transform="translate(6.957 6.925)">
      <path id="Path_1303" data-name="Path 1303" d="M1097.16,234.55h36.818c-4.922,13.189-16.933,21.259-35.244,21.259-26.772,0-43.311-17.124-43.311-40.553,0-24.216,17.326-41.343,40.556-41.343,15.552,0,27.955,7.086,33.667,16.143l26.774-15.356c-11.615-18.507-33.864-31.5-60.244-31.5-40.554,0-72.253,31.89-72.253,71.856,0,39.572,31.106,71.465,74.416,71.465,38.589,0,67.921-25.591,67.921-67.724V206.986h-69.1Z" transform="translate(-1023.924 -57.645)" fill="#fff"/>
      <path id="Path_1304" data-name="Path 1304" d="M1230.865,157.207c-13.978,0-23.036,5.119-28.548,12.995-5.509-8.27-14.175-12.995-25.787-12.995-13.192,0-21.852,5.119-26.381,11.812v-9.054h-29.532V258.4h29.532V202.885c0-11.618,5.512-18.507,15.357-18.507,9.45,0,14.173,6.3,14.173,16.141V258.4h29.531V202.885c0-11.618,5.512-18.507,15.357-18.507,9.45,0,14.172,6.3,14.172,16.141V258.4h29.532V197.96C1268.27,173.35,1253.5,157.207,1230.865,157.207Z" transform="translate(-848.819 -32.279)" fill="#fff"/>
      <rect id="Rectangle_76" data-name="Rectangle 76" width="29.531" height="98.437" transform="translate(435.07 127.685)" fill="#fff"/>
      <path id="Path_1305" data-name="Path 1305" d="M1205.813,185.433h-13.189v28.348h13.189v70.088h29.531V213.781h18.311V185.433h-18.311c0-11.418,7.283-14.766,18.311-13.782V143.3C1220.972,141.332,1205.813,157.868,1205.813,185.433Z" transform="translate(-718.418 -57.747)" fill="#fff"/>
      <path id="Path_1306" data-name="Path 1306" d="M1287.329,158.188l-18.507,60.244-21.85-60.244h-32.485l39.178,93.908c-4.331,12.011-10.827,16.34-24.609,16.34V296c27.561,1.38,45.084-11.022,56.109-42.327l33.664-95.482Z" transform="translate(-678.825 -30.502)" fill="#fff"/>
      <g id="Group_153" data-name="Group 153" transform="translate(392.01 0)">
        <ellipse id="Ellipse_25" data-name="Ellipse 25" cx="16.675" cy="16.675" rx="16.675" ry="16.675" transform="translate(41.15 82.3)" fill="#fff"/>
        <ellipse id="Ellipse_26" data-name="Ellipse 26" cx="16.675" cy="16.675" rx="16.675" ry="16.675" transform="translate(0 41.15)" fill="#fff"/>
        <ellipse id="Ellipse_27" data-name="Ellipse 27" cx="16.675" cy="16.675" rx="16.675" ry="16.675" transform="translate(41.15)" fill="#fff"/>
        <ellipse id="Ellipse_28" data-name="Ellipse 28" cx="16.675" cy="16.675" rx="16.675" ry="16.675" transform="translate(82.3 41.15)" fill="#fff"/>
      </g>
      <path id="Path_1307" data-name="Path 1307" d="M1153.4,159.964v9.254c-6.5-7.483-16.143-12.011-29.332-12.011-25.794,0-47.055,22.639-47.055,51.977s21.261,51.972,47.055,51.972c13.189,0,22.836-4.526,29.332-12.008V258.4h29.532V159.964Zm10.111,52.624a6.731,6.731,0,0,1-6.732,6.732h-9.934a6.733,6.733,0,0,0-6.732,6.732v9.937a6.733,6.733,0,0,1-6.732,6.732h-6.813a6.733,6.733,0,0,1-6.732-6.732v-9.937a6.735,6.735,0,0,0-6.732-6.732h-9.938a6.731,6.731,0,0,1-6.732-6.732v-6.814a6.731,6.731,0,0,1,6.732-6.732h9.938a6.733,6.733,0,0,0,6.732-6.732v-9.934a6.734,6.734,0,0,1,6.732-6.735h6.813a6.733,6.733,0,0,1,6.732,6.735v9.934a6.731,6.731,0,0,0,6.732,6.732h9.934a6.731,6.731,0,0,1,6.732,6.732Z" transform="translate(-927.779 -32.279)" fill="#fff"/>
      <g id="Group_154" data-name="Group 154" transform="translate(640.43 62.68)">
        <path id="Path_1308" data-name="Path 1308" d="M1334.02,161.293a5.355,5.355,0,0,0-2.488-6.693,4.55,4.55,0,0,0-3.781-.115l-8.4,3.123,3.488,9.366,8.391-3.123A4.744,4.744,0,0,0,1334.02,161.293Z" transform="translate(-1129.345 -100.529)" fill="#fff"/>
        <path id="Path_1309" data-name="Path 1309" d="M1335.3,160.4a5.2,5.2,0,0,0-4.048-.084l-9.669,3.6,3.732,10.035,9.67-3.6a4.979,4.979,0,0,0,2.985-2.769,5.23,5.23,0,0,0,.064-4.109A5.45,5.45,0,0,0,1335.3,160.4Z" transform="translate(-1125.305 -89.991)" fill="#fff"/>
        <path id="Path_1310" data-name="Path 1310" d="M1507.676,234.465l-32.7-87.859a17.715,17.715,0,0,0-22.786-10.426l-168.9,62.853a17.712,17.712,0,0,0-10.555,10.783l-19.992,57.453a17.722,17.722,0,0,0,7.876,21.172l52.688,30.406a17.722,17.722,0,0,0,15.036,1.259l168.9-62.853A17.722,17.722,0,0,0,1507.676,234.465Zm-222.067,43.182a9.893,9.893,0,1,1,5.818-12.722A9.9,9.9,0,0,1,1285.609,277.647Zm69.264-15.781a23.168,23.168,0,0,1-9.685,6.721,23.623,23.623,0,1,1-16.474-44.275,23.2,23.2,0,0,1,11.721-1.248,20.849,20.849,0,0,1,10.319,4.469l-5.678,6.89c-3.767-3.235-8.225-3.865-13.33-1.965a14.3,14.3,0,0,0-8.589,7.629,15.078,15.078,0,0,0-.012,11.5,14.92,14.92,0,0,0,7.5,8.63,14.276,14.276,0,0,0,11.485.157,14.473,14.473,0,0,0,6.019-4.107,11.352,11.352,0,0,0,2.81-6.032l8.8,1.5A20.778,20.778,0,0,1,1354.873,261.866Zm16.593-4.025-15.843-42.572,8.39-3.126,12.858,34.544,16.239-6.041,2.986,8.028Zm58.017-25.192c-2.043,3.809-5.439,6.594-10.243,8.382q-7.118,2.648-13.172.332a14.533,14.533,0,0,1-8.569-9.068l-10.662-28.646,8.335-3.1,10.409,27.977c1.792,4.8,5.31,6.266,10.6,4.3s7-5.375,5.209-10.181l-10.409-27.974,8.4-3.123,10.66,28.643A14.529,14.529,0,0,1,1429.484,232.649ZM1472.5,216.3a14.476,14.476,0,0,1-8.134,6.974l-18.066,6.724-15.843-42.574,16.787-6.246a14.2,14.2,0,0,1,10.452-.014,11.812,11.812,0,0,1,6.963,7.176,11.04,11.04,0,0,1-.849,10,11.27,11.27,0,0,1,9.219,7.649A12.236,12.236,0,0,1,1472.5,216.3Z" transform="translate(-1251.759 -135.062)" fill="#fff"/>
      </g>
    </g>
  </g>
</svg>
