<svg id="Group_872" data-name="Group 872" xmlns="http://www.w3.org/2000/svg" width="78.624" height="78.624" viewBox="0 0 78.624 78.624">
  <path id="Path_909" data-name="Path 909" d="M262.681,48.841a39.665,39.665,0,0,0-3.979,4.646,39.072,39.072,0,0,0-7.032,16.894,40.164,40.164,0,0,0-.5,5.785q-.016,1.758.116,3.505a39.312,39.312,0,0,0,35.166,36.074,39.646,39.646,0,0,0,10.584-.341c.279-.049.564-.1.846-.153a39.06,39.06,0,0,0,14.834-6.181,39.807,39.807,0,0,0,5.565-4.633c.186-.189.375-.38.559-.574a39.4,39.4,0,0,0,4.558-5.715A39.269,39.269,0,0,0,329.725,74.4q-.074-1.316-.235-2.623a39.12,39.12,0,0,0-11.21-22.937,40.168,40.168,0,0,0-4.8-4.09q-.8-.578-1.625-1.11a39.111,39.111,0,0,0-14.764-5.756,39.373,39.373,0,0,0-19.649,1.661A38.994,38.994,0,0,0,266.5,45.483c-.3.233-.6.468-.9.714Q264.094,47.431,262.681,48.841Z" transform="translate(-251.166 -37.328)" fill="#24082d" opacity="0.1"/>
  <path id="Path_910" data-name="Path 910" d="M262.681,48.841a39.665,39.665,0,0,0-3.979,4.646,39.072,39.072,0,0,0-7.032,16.894,40.164,40.164,0,0,0-.5,5.785q-.016,1.758.116,3.505a39.312,39.312,0,0,0,35.166,36.074,39.646,39.646,0,0,0,10.584-.341c.279-.049.564-.1.846-.153a39.06,39.06,0,0,0,14.834-6.181,39.807,39.807,0,0,0,5.565-4.633c.186-.189.375-.38.559-.574a39.4,39.4,0,0,0,4.558-5.715A39.269,39.269,0,0,0,329.725,74.4q-.074-1.316-.235-2.623a39.22,39.22,0,0,0-3.575-12.19c-.5-.212-1.022-.419-1.555-.629-13.2-5.138-11.588-9.169-10.876-14.208q-.8-.578-1.625-1.11a39.111,39.111,0,0,0-14.764-5.756,39.373,39.373,0,0,0-19.649,1.661A38.994,38.994,0,0,0,266.5,45.483c-.3.233-.6.468-.9.714Q264.094,47.431,262.681,48.841Z" transform="translate(-251.166 -37.328)" fill="#efefef" opacity="0.15" style="mix-blend-mode: screen;isolation: isolate"/>
  <path id="Path_911" data-name="Path 911" d="M262.706,48.009a39.667,39.667,0,0,0-3.979,4.646A39.072,39.072,0,0,0,251.7,69.549a40.168,40.168,0,0,0-.5,5.785q-.015,1.758.116,3.505a39.311,39.311,0,0,0,35.166,36.074,39.646,39.646,0,0,0,10.584-.341c.279-.049.564-.1.846-.153a39.061,39.061,0,0,0,14.834-6.181,39.811,39.811,0,0,0,5.565-4.633c.186-.189.375-.38.559-.574a39.4,39.4,0,0,0,4.558-5.715,38.951,38.951,0,0,0,5.495-13.137c.393-1.8.7-8.781.833-10.61-3.242-9.577-12.405-12.133-18.288-18.72-18.41-20.611-27.938-17.158-33.992-16.136a38.994,38.994,0,0,0-10.946,5.937c-.3.233-.6.468-.9.714Q264.12,46.6,262.706,48.009Z" transform="translate(-251.192 -36.496)" fill="#efefef" opacity="0.15" style="mix-blend-mode: screen;isolation: isolate"/>
  <path id="Path_912" data-name="Path 912" d="M262.681,48.841a39.661,39.661,0,0,0-3.979,4.646,39.072,39.072,0,0,0-7.032,16.894,40.168,40.168,0,0,0-.5,5.785q-.015,1.758.116,3.505a39.312,39.312,0,0,0,35.166,36.074,39.646,39.646,0,0,0,10.584-.341c.279-.049.564-.1.846-.153a39.061,39.061,0,0,0,14.834-6.181,39.813,39.813,0,0,0,5.565-4.633c.186-.189.375-.38.559-.574a39.4,39.4,0,0,0,4.558-5.715A39.324,39.324,0,0,0,329.725,74.4c-8.8-4.548-21.737-6.556-27.079-11.9-5.655-5.653-3.229-15.836-5.552-24.616a39.5,39.5,0,0,0-14.081.155A39.082,39.082,0,0,0,266.5,45.483c-.3.233-.6.468-.9.714Q264.094,47.431,262.681,48.841Z" transform="translate(-251.166 -37.328)" fill="#efefef" opacity="0.15" style="mix-blend-mode: screen;isolation: isolate"/>
  <path id="Path_913" data-name="Path 913" d="M263.028,43.838a39.666,39.666,0,0,0-3.979,4.646,39.072,39.072,0,0,0-7.032,16.894,40.17,40.17,0,0,0-.5,5.785q-.015,1.758.116,3.505A39.312,39.312,0,0,0,286.8,110.742a39.646,39.646,0,0,0,10.584-.341c.279-.049.564-.1.846-.153a39.061,39.061,0,0,0,14.834-6.181,39.806,39.806,0,0,0,5.565-4.633c.186-.189.375-.38.559-.574a39.4,39.4,0,0,0,4.558-5.715,38.952,38.952,0,0,0,5.495-13.137c-4.015-4.8-10.736-9.161-20.989-11.642-20.334-4.928-28.052-8.349-41.4-27.886-.3.233-.6.468-.9.714Q264.442,42.428,263.028,43.838Z" transform="translate(-251.514 -32.324)" fill="#efefef" opacity="0.15" style="mix-blend-mode: screen;isolation: isolate"/>
  <path id="Path_914" data-name="Path 914" d="M265.152,48.4a39.666,39.666,0,0,0-3.979,4.646,39.072,39.072,0,0,0-7.032,16.894,40.166,40.166,0,0,0-.5,5.785q-.016,1.758.116,3.505a39.311,39.311,0,0,0,35.166,36.074,39.646,39.646,0,0,0,10.584-.341c.279-.049.564-.1.846-.153a39.06,39.06,0,0,0,14.834-6.181A39.81,39.81,0,0,0,320.751,104c.186-.189.375-.38.559-.574a39.4,39.4,0,0,0,4.558-5.715C316.793,92.128,297.951,85.288,290.811,71c-7.609-15.207-.45-27.107-5.327-33.4a39.074,39.074,0,0,0-17.408,8.157Q266.566,46.994,265.152,48.4Z" transform="translate(-253.638 -36.89)" fill="#efefef" opacity="0.15" style="mix-blend-mode: screen;isolation: isolate"/>
  <path id="Path_915" data-name="Path 915" d="M275.015,43.4a39.667,39.667,0,0,0-3.979,4.646A39.072,39.072,0,0,0,264,64.94a40.166,40.166,0,0,0-.5,5.785q-.016,1.758.116,3.505A39.312,39.312,0,0,0,298.785,110.3a39.646,39.646,0,0,0,10.584-.341c.279-.049.564-.1.846-.153-6.962-10.232-15.706-23.817-19.051-40.369-3.363-16.65-8.527-24.73-13.225-28.686Q276.429,41.99,275.015,43.4Z" transform="translate(-263.501 -31.886)" fill="#efefef" opacity="0.15" style="mix-blend-mode: screen;isolation: isolate"/>
  <path id="Path_916" data-name="Path 916" d="M262.935,43.574A39.072,39.072,0,0,0,255.9,60.468a40.161,40.161,0,0,0-.5,5.785q-.016,1.758.116,3.505a39.311,39.311,0,0,0,35.166,36.074,39.646,39.646,0,0,0,10.584-.341,39.134,39.134,0,0,0,15.68-6.333,39.811,39.811,0,0,0,5.565-4.633c.186-.189.375-.38.559-.574-.885-5.373-4.646-11.075-18.513-15.476C284.907,72.236,260.93,73.737,262.935,43.574Z" transform="translate(-255.4 -27.414)" fill="#efefef" opacity="0.15" style="mix-blend-mode: screen;isolation: isolate"/>
  <path id="Path_917" data-name="Path 917" d="M257.769,52.34q-.016,1.758.116,3.505A39.312,39.312,0,0,0,293.051,91.92a39.646,39.646,0,0,0,10.584-.341,39.134,39.134,0,0,0,15.68-6.333c-2.82-7.032-11.7-22.888-34.437-22.888C272.43,62.357,263.807,57.876,257.769,52.34Z" transform="translate(-257.767 -13.502)" fill="#efefef" opacity="0.15" style="mix-blend-mode: screen;isolation: isolate"/>
  <path id="Path_918" data-name="Path 918" d="M264.328,50.1a39.313,39.313,0,0,0,45.364,45.023c-1.519-7.751-5.78-18.267-17.507-23.677C276.505,64.219,268.808,59.1,264.328,50.1Z" transform="translate(-263.824 -17.05)" fill="#efefef" opacity="0.15" style="mix-blend-mode: screen;isolation: isolate"/>
  <path id="Path_919" data-name="Path 919" d="M267.767,53.695a39.311,39.311,0,0,0,35.166,36.074c.437-2.512,1.081-7.417-1.694-10.961-5.976-7.627-16.806-.688-19.592-9.645A23.622,23.622,0,0,0,267.767,53.695Z" transform="translate(-267.649 -11.351)" fill="#efefef" opacity="0.15" style="mix-blend-mode: screen;isolation: isolate"/>
</svg>
