<svg xmlns="http://www.w3.org/2000/svg" xmlns:xlink="http://www.w3.org/1999/xlink" width="1072.285" height="190.781" viewBox="0 0 1072.285 190.781">
  <defs>
    <linearGradient id="linear-gradient" x1="0.999" y1="0.25" x2="-0.061" y2="0.618" gradientUnits="objectBoundingBox">
      <stop offset="0" stop-color="#c200fb"/>
      <stop offset="0.49" stop-color="#3772ff"/>
      <stop offset="0.49" stop-color="#3773fe"/>
      <stop offset="1" stop-color="#5ac4be"/>
    </linearGradient>
    <linearGradient id="linear-gradient-2" x1="1.684" y1="-0.081" x2="-0.869" y2="0.757" xlink:href="#linear-gradient"/>
    <linearGradient id="linear-gradient-3" x1="2.846" y1="-3.048" x2="-4.001" y2="0.125" xlink:href="#linear-gradient"/>
    <linearGradient id="linear-gradient-4" x1="1.001" y1="0.252" x2="-9.253" y2="3.803" xlink:href="#linear-gradient"/>
  </defs>
  <g id="radium_logo" transform="translate(420.468 -320.918)">
    <path id="Path_1690" data-name="Path 1690" d="M84.526,87.7,70.032,62.664H48.81V87.7H36.326V12.522H73.915A25.036,25.036,0,0,1,94.721,51.775a24.63,24.63,0,0,1-11.027,8.947L99.16,87.7ZM73.915,25.283H48.81V50.25h25.1a11.93,11.93,0,0,0,8.739-3.814,12.552,12.552,0,0,0-8.807-21.36ZM207.559,12.522,169.9,87.7h14.01L207.559,40.61,231.139,87.7h14.009Zm158.678,0H350.286l-21.431,27.74L307.5,12.522h-16.02l31.417,40.086V87.7h12.483V51.984Zm63.942,0h25.036a37.589,37.589,0,0,1,0,75.178H430.179Zm25.036,62.417a25.037,25.037,0,0,0,0-50.073H442.593V74.939ZM576.237,12.522H563.753V87.7h12.483ZM709.813,56.283a30.079,30.079,0,0,1-9.229,22.193,31.277,31.277,0,0,1-53.4-22.193V12.522h12.484V56.283a18.793,18.793,0,1,0,37.585,0V12.522h12.561ZM793.241,87.7V42.76l25.171,25.1,25.043-25.1V87.7h12.688V12.522L818.412,50.112,780.828,12.522V87.7Z" transform="translate(-204.326 366.242)" fill="#f1f1f2" fill-rule="evenodd"/>
    <g id="Group_1140" data-name="Group 1140" transform="translate(-420.468 320.918)">
      <path id="Path_1691" data-name="Path 1691" d="M156.612,71.6v66.524L82.618,180.836,8.584,138.124V52.658L82.618,9.9l56.868,32.849,8.584-4.952L82.618,0,0,47.706v95.37l82.618,47.706,82.619-47.706V66.648Z" transform="translate(0 0)" fill="url(#linear-gradient)"/>
      <path id="Path_1692" data-name="Path 1692" d="M20.875,93H8.494V51.485H49.762A14.857,14.857,0,0,0,64.453,36.67,14.152,14.152,0,0,0,60.12,26.312a14.322,14.322,0,0,0-10.358-4.334H8.494V9.351H49.8A27.483,27.483,0,0,1,77.122,36.67a26.533,26.533,0,0,1-4.828,15.475,26.9,26.9,0,0,1-11.885,9.739,47.653,47.653,0,0,1-14.774,2.229H20.875Z" transform="translate(41.027 45.164)" fill="url(#linear-gradient-2)"/>
      <path id="Path_1693" data-name="Path 1693" d="M41.413,41.813H26.969L15.827,22.376a47.064,47.064,0,0,0,12.917-2.641Z" transform="translate(76.448 95.321)" fill="url(#linear-gradient-3)"/>
      <path id="Path_1694" data-name="Path 1694" d="M25.383,22.321l8.542,4.746,8.543-4.746V12.292L33.925,7.34l-8.542,4.952Z" transform="translate(122.603 35.455)" fill="url(#linear-gradient-4)"/>
    </g>
  </g>
</svg>
