<svg xmlns="http://www.w3.org/2000/svg" xmlns:xlink="http://www.w3.org/1999/xlink" width="173.742" height="19.197" viewBox="0 0 173.742 19.197">
  <defs>
    <linearGradient id="linear-gradient" x1="0.5" x2="0.5" y2="1" gradientUnits="objectBoundingBox">
      <stop offset="0" stop-color="#0bf2a8"/>
      <stop offset="1" stop-color="#d524fc"/>
    </linearGradient>
  </defs>
  <g id="Group_1234" data-name="Group 1234" transform="translate(94.515 547.431)">
    <g id="Group_30" data-name="Group 30" transform="translate(-94.515 -547.431)">
      <path id="Intersection_4" data-name="Intersection 4" d="M.4,19.2a.4.4,0,0,1-.282-.681l3.863-3.863a.8.8,0,0,1,.563-.235H24.094a.4.4,0,0,1,.282.68l-3.863,3.863a.8.8,0,0,1-.563.235Zm4.144-7.261a.8.8,0,0,1-.563-.235L.119,7.843A.4.4,0,0,1,.4,7.163H19.95a.8.8,0,0,1,.563.235l3.863,3.858a.4.4,0,0,1-.282.68ZM.4,4.774a.4.4,0,0,1-.282-.681L3.982.235A.8.8,0,0,1,4.545,0H24.094a.4.4,0,0,1,.282.681L20.513,4.539a.8.8,0,0,1-.563.235Z" transform="translate(0)" fill="url(#linear-gradient)"/>
    </g>
    <path id="Path_168" data-name="Path 168" d="M-283.507,1014.241h7.784a1.989,1.989,0,0,1,1.981,1.991,1.983,1.983,0,0,1-1.981,1.99h-9.388a.59.59,0,0,0-.4.151l-2.831,2.444a.617.617,0,0,0,.4,1.085h11.747a.009.009,0,0,0,.009-.01.009.009,0,0,1,.01-.01c.151.01.292.019.443.019a5.658,5.658,0,0,0,5.642-5.67,5.657,5.657,0,0,0-5.18-5.652.009.009,0,0,1-.009-.009c0-.01,0-.01-.009-.01h-8.378a1.989,1.989,0,0,1-1.981-1.991,1.983,1.983,0,0,1,1.981-1.991h9.369a.619.619,0,0,0,.415-.161l2.632-2.444a.62.62,0,0,0-.415-1.076h-11.992a5.658,5.658,0,0,0-5.642,5.671,5.657,5.657,0,0,0,5.642,5.67Z" transform="translate(226.17 -1550.313)" fill="#fff"/>
    <path id="Path_169" data-name="Path 169" d="M246.413,1002.709a.614.614,0,0,0-.613.623v17.776a.62.62,0,0,0,.613.623H260.66a.645.645,0,0,0,.453-.2l1.783-1.915a.622.622,0,0,0-.453-1.047H250.008a.614.614,0,0,1-.613-.622v-14.624a.62.62,0,0,0-.613-.623h-2.368Z" transform="translate(-258.442 -1550.132)" fill="#fff"/>
    <path id="Path_170" data-name="Path 170" d="M-8.9,1002.809H-21.832v-.009a3.541,3.541,0,0,0-3.368,3.368v12.105a3.515,3.515,0,0,0,3.368,3.519H-8.906a3.534,3.534,0,0,0,3.368-3.519v-12.1A3.519,3.519,0,0,0-8.9,1002.809Zm-.311,13.011v.094a2.212,2.212,0,0,1-2.1,2.217h-8.1a2.212,2.212,0,0,1-2.1-2.217V1008.3a2.207,2.207,0,0,1,2.1-2.123h8.1a2.214,2.214,0,0,1,2.1,2.123Z" transform="translate(-13.011 -1550.222)" fill="#fff"/>
    <path id="Path_171" data-name="Path 171" d="M495.528,1021.379a.62.62,0,0,0,.613.623h2.415a.614.614,0,0,0,.613-.623V1006.67h0v-.151A3.5,3.5,0,0,0,495.84,1003H483.282a3.5,3.5,0,0,0-3.482,3.529v.151h0v14.709a.62.62,0,0,0,.613.623h2.415a.614.614,0,0,0,.613-.623v-6.123a.62.62,0,0,1,.613-.623h10.888a.614.614,0,0,1,.613.623v6.114Zm-12.105-10.124V1008.2a2.138,2.138,0,0,1,2.123-2.151h7.869a2.138,2.138,0,0,1,2.123,2.151v3.057a.62.62,0,0,1-.613.623H484.036A.614.614,0,0,1,483.423,1011.256Z" transform="translate(-470.364 -1550.403)" fill="#fff"/>
    <path id="Path_172" data-name="Path 172" d="M1028.512,1021.912a.614.614,0,0,1-.614-.623v-6.123a.62.62,0,0,0-.613-.623h-11.011a.614.614,0,0,0-.613.623v6.123a.62.62,0,0,1-.613.623h-2.434a.614.614,0,0,1-.613-.623V1006.58h0v-.151a3.527,3.527,0,0,1,3.519-3.529h12.69a3.534,3.534,0,0,1,3.368,3.519v.151h0v14.709a.62.62,0,0,1-.613.623h-2.453Zm-12.851-13.8v3.057a.62.62,0,0,0,.613.623h11.011a.614.614,0,0,0,.613-.623v-3.057a2.148,2.148,0,0,0-2.142-2.151H1017.8A2.142,2.142,0,0,0,1015.661,1008.108Z" transform="translate(-952.35 -1550.313)" fill="#fff"/>
    <path id="Path_173" data-name="Path 173" d="M748.987,1002.8a.585.585,0,0,1,.462.217l10.832,12.917a.611.611,0,0,0,1.075-.406v-12.105a.62.62,0,0,1,.613-.623h2.415a.614.614,0,0,1,.614.623V1021.2a.62.62,0,0,1-.614.623h-3a.021.021,0,0,1-.019-.019c0-.01,0-.01-.01-.019l-11.02-12.822a.613.613,0,0,0-1.075.406v11.841a.62.62,0,0,1-.613.623h-2.434a.614.614,0,0,1-.613-.623v-17.785a.62.62,0,0,1,.613-.623Z" transform="translate(-711.085 -1550.222)" fill="#fff"/>
  </g>
</svg>
