<svg width="34" height="35" viewBox="0 0 34 35" fill="none" xmlns="http://www.w3.org/2000/svg">
<g clip-path="url(#clip0)">
<path d="M19.7268 12.0416C19.7917 11.783 19.7045 11.5101 19.5023 11.3365L15.1499 7.60829C14.7093 7.23087 14.1305 7.08088 13.5619 7.19683L9.30185 8.0658C8.87069 8.15377 8.51859 8.45125 8.35996 8.86165C8.20129 9.27202 8.26175 9.72897 8.52154 10.084L11.2902 13.8675C11.3118 13.897 11.3353 13.9244 11.3605 13.9496C11.5284 14.1174 11.7722 14.1911 12.0088 14.139L19.196 12.5571C19.4564 12.4998 19.6619 12.3001 19.7268 12.0416Z" fill="#E45A6E"/>
<path d="M19.7272 22.0301C19.6623 21.7715 19.4567 21.5718 19.1964 21.5145L12.0091 19.9326C11.737 19.8727 11.4552 19.9792 11.2906 20.2041L8.52186 23.9876C8.26203 24.3427 8.20164 24.7996 8.36031 25.21C8.4263 25.3807 8.52577 25.5318 8.65046 25.6565C8.82551 25.8315 9.0504 25.9545 9.30217 26.0059L13.5623 26.8748C14.1308 26.9908 14.7096 26.8409 15.1503 26.4633L19.5026 22.7352C19.7051 22.5618 19.7921 22.2887 19.7272 22.0301Z" fill="#D82E44"/>
<path d="M9.72793 20.1226C9.72793 20.5184 9.91653 20.8921 10.2387 21.122C14.9629 24.4926 21.5168 24.3443 25.0936 23.2062C29.0651 21.9426 31.8815 19.2265 33.108 17.8585C33.5283 17.3896 33.5283 16.6809 33.108 16.2121C31.8814 14.8441 29.0651 12.1281 25.0935 10.8644C21.5168 9.72634 14.9629 9.57802 10.2387 12.9487C9.91656 13.1786 9.72793 13.5523 9.72793 13.948L9.72793 20.1226Z" fill="#F1F1FB"/>
<path d="M33.4228 17.0361L9.72755 17.0361L9.72755 20.1234C9.72754 20.5192 9.91618 20.8929 10.2383 21.1228C14.9625 24.4934 21.5165 24.3451 25.0931 23.2071C29.0647 21.9434 31.8811 19.2274 33.1076 17.8593C33.3177 17.6249 33.4228 17.3305 33.4228 17.0361Z" fill="#D7D6FB"/>
<path d="M20.795 19.5208C20.1583 18.8842 19.7642 18.0055 19.7642 17.0361C19.7641 16.0971 20.1298 15.2142 20.7938 14.5502C21.4578 13.8862 22.3407 13.5205 23.2798 13.5205C25.2182 13.5205 26.7953 15.0975 26.7953 17.0361C26.7953 17.9751 26.4296 18.858 25.7656 19.522C25.1016 20.186 24.2188 20.5517 23.2797 20.5517C22.3106 20.5517 21.4316 20.1573 20.795 19.5208ZM23.2797 14.2236L23.2801 14.2239L23.2797 14.2236Z" fill="#466288"/>
<path d="M10.2384 12.9497C9.91629 13.1796 9.72766 13.5533 9.72766 13.949L9.72766 20.1236C9.72766 20.5194 9.91629 20.8931 10.2384 21.123C11.2664 21.8564 12.381 22.4231 13.5327 22.8494L13.5327 11.2234C12.381 11.6496 11.2664 12.2163 10.2384 12.9497Z" fill="#466288"/>
<path d="M3.52211 14.5582C3.64933 14.6854 3.82516 14.7641 4.0193 14.7641L7.26578 14.7641C7.65409 14.7641 7.9689 14.4493 7.9689 14.0609C7.96894 13.6726 7.65415 13.3579 7.26579 13.3578L4.01933 13.3579C3.63103 13.3578 3.31621 13.6726 3.31621 14.061C3.31618 14.2552 3.39487 14.4309 3.52211 14.5582Z" fill="#FDB43A"/>
<path d="M7.96847 17.036C7.96847 16.6478 7.65365 16.333 7.26535 16.3329L1.02377 16.3329C0.635467 16.3329 0.320651 16.6477 0.320651 17.036C0.320651 17.2302 0.399372 17.406 0.526618 17.5332C0.653864 17.6605 0.829669 17.7391 1.0238 17.7391L7.26538 17.7391C7.65369 17.7392 7.9685 17.4243 7.96847 17.036Z" fill="#FDB43A"/>
<path d="M7.96844 20.0111C7.96844 19.6228 7.65362 19.308 7.26532 19.308L4.01891 19.308C3.63061 19.3079 3.31579 19.6228 3.31579 20.0111C3.31579 20.2053 3.39448 20.3811 3.52169 20.5083C3.64891 20.6355 3.82474 20.7142 4.01888 20.7142L7.26535 20.7142C7.65365 20.7142 7.96847 20.3994 7.96844 20.0111Z" fill="#F57A21"/>
<path d="M0.321074 17.0359C0.321074 17.23 0.399794 17.4058 0.527041 17.533C0.654287 17.6603 0.830092 17.739 1.02423 17.7389L7.26581 17.7389C7.65411 17.739 7.96893 17.4242 7.96893 17.0358L0.321074 17.0359Z" fill="#F57A21"/>
<path d="M9.72762 17.0363L9.72763 20.1236C9.72763 20.5193 9.91626 20.893 10.2384 21.1229C11.2664 21.8564 12.381 22.423 13.5327 22.8493L13.5327 17.0363L9.72762 17.0363Z" fill="#354A67"/>
<path d="M19.7639 17.0361C19.7639 18.0055 20.158 18.8843 20.7948 19.5209C21.4313 20.1573 22.3104 20.5517 23.2795 20.5517C24.2186 20.5517 25.1014 20.186 25.7654 19.522C26.4294 18.858 26.7952 17.9751 26.7951 17.0361L19.7639 17.0361Z" fill="#354A67"/>
<path d="M24.7704 15.5453C24.3884 15.1633 23.8611 14.9267 23.2795 14.9268C22.7161 14.9268 22.1864 15.1461 21.788 15.5445C21.3896 15.9429 21.1702 16.4727 21.1702 17.0361C21.1702 18.1992 22.1165 19.1455 23.2796 19.1455C23.843 19.1454 24.3727 18.9261 24.7712 18.5276C25.1696 18.1292 25.389 17.5995 25.389 17.0361C25.3889 16.4546 25.1524 15.9273 24.7704 15.5453Z" fill="#4BBEFD"/>
<path d="M25.3891 17.0361L21.1704 17.0361C21.1704 18.1992 22.1167 19.1455 23.2798 19.1455C23.8432 19.1454 24.3729 18.926 24.7713 18.5276C25.1697 18.1292 25.3892 17.5996 25.3891 17.0361Z" fill="#0590FB"/>
</g>
<defs>
<clipPath id="clip0">
<rect width="24" height="24" fill="white" transform="translate(17 0.0654297) rotate(45)"/>
</clipPath>
</defs>
</svg>
