<svg width="20" height="21" viewBox="0 0 20 21" fill="none" xmlns="http://www.w3.org/2000/svg">
<path d="M16.8421 17.85H3.15789L0 21V3.15C0 1.4175 1.42105 0 3.15789 0H16.8421C18.5789 0 20 1.4175 20 3.15V14.7C20 16.4325 18.5789 17.85 16.8421 17.85Z" fill="white"/>
<path d="M8.94739 7.36816H11.0527V13.1576H8.94739V7.36816Z" fill="#1C0045"/>
<path d="M10 5.78935C10.5814 5.78935 11.0527 5.31807 11.0527 4.73671C11.0527 4.15536 10.5814 3.68408 10 3.68408C9.41867 3.68408 8.94739 4.15536 8.94739 4.73671C8.94739 5.31807 9.41867 5.78935 10 5.78935Z" fill="#1C0045"/>
</svg>
