<svg width="23" height="23" viewBox="0 0 23 23" fill="none" xmlns="http://www.w3.org/2000/svg">
<path d="M18.4719 6.68438L13.4406 1.65312C13.2969 1.50937 13.1531 1.4375 12.9375 1.4375H5.75C4.95937 1.4375 4.3125 2.08437 4.3125 2.875V20.125C4.3125 20.9156 4.95937 21.5625 5.75 21.5625H17.25C18.0406 21.5625 18.6875 20.9156 18.6875 20.125V7.1875C18.6875 6.97187 18.6156 6.82813 18.4719 6.68438ZM12.9375 3.1625L16.9625 7.1875H12.9375V3.1625ZM17.25 20.125H5.75V2.875H11.5V7.1875C11.5 7.97813 12.1469 8.625 12.9375 8.625H17.25V20.125Z" fill="white"/>
<path d="M7.1875 15.8125H15.8125V17.25H7.1875V15.8125Z" fill="white"/>
<path d="M7.1875 11.5H15.8125V12.9375H7.1875V11.5Z" fill="white"/>
</svg>
